<?xml version="1.0" encoding="iso-8859-1"?>
<!-- Generator: Adobe Illustrator 19.0.0, SVG Export Plug-In . SVG Version: 6.00 Build 0)  -->
<svg version="1.1" id="Layer_1" xmlns="http://www.w3.org/2000/svg" xmlns:xlink="http://www.w3.org/1999/xlink" x="0px" y="0px"
	 viewBox="0 0 512 512" style="enable-background:new 0 0 512 512;" xml:space="preserve">
<g>
	<g>
		<path d="M435.2,0H76.8C53.274,0,34.133,19.14,34.133,42.667v256c0,2.261,0.896,4.437,2.5,6.033L207.3,475.366
			c3.337,3.336,8.73,3.336,12.066,0c3.337-3.337,3.337-8.73,0-12.066L51.2,295.134V42.667c0-14.114,11.486-25.6,25.6-25.6h358.4
			c14.114,0,25.6,11.486,25.6,25.6v426.667c0,14.114-11.486,25.6-25.6,25.6H256V332.8c0-9.643-3.337-18.449-8.747-25.6h150.281
			l-70.767,70.775c-3.336,3.337-3.336,8.73,0,12.066c1.664,1.664,3.849,2.5,6.033,2.5c2.185,0,4.369-0.836,6.033-2.5l85.325-85.333
			c0.794-0.794,1.417-1.732,1.852-2.782c0.862-2.082,0.862-4.437,0-6.519c-0.435-1.05-1.058-1.988-1.852-2.782L338.833,207.3
			c-3.337-3.337-8.73-3.337-12.066,0c-3.336,3.337-3.336,8.73,0,12.066l70.767,70.767H213.333h-128
			c-4.719,0-8.533,3.823-8.533,8.533s3.814,8.533,8.533,8.533h128c14.114,0,25.6,11.486,25.6,25.6v170.667
			c0,4.71,3.814,8.533,8.533,8.533H435.2c23.526,0,42.667-19.14,42.667-42.667V42.667C477.867,19.14,458.726,0,435.2,0z"/>
	</g>
</g>
<g>
</g>
<g>
</g>
<g>
</g>
<g>
</g>
<g>
</g>
<g>
</g>
<g>
</g>
<g>
</g>
<g>
</g>
<g>
</g>
<g>
</g>
<g>
</g>
<g>
</g>
<g>
</g>
<g>
</g>
</svg>
