<?xml version="1.0" standalone="no"?>
<!DOCTYPE svg PUBLIC "-//W3C//DTD SVG 20010904//EN"
 "http://www.w3.org/TR/2001/REC-SVG-20010904/DTD/svg10.dtd">
<svg version="1.0" xmlns="http://www.w3.org/2000/svg"
 width="96.000000pt" height="96.000000pt" viewBox="0 0 96.000000 96.000000"
 preserveAspectRatio="xMidYMid meet">

<g transform="translate(0.000000,96.000000) scale(0.100000,-0.100000)"
fill="#000000" stroke="none">
<path d="M57 902 c-10 -10 -17 -35 -17 -56 0 -30 3 -37 18 -34 11 2 18 14 20
36 l3 32 172 -2 172 -3 24 -147 c21 -129 26 -148 42 -148 11 0 19 3 19 8 0 11
-20 134 -25 160 -5 21 -3 22 81 22 76 0 85 2 82 18 -3 14 -17 17 -91 20 l-87
3 0 32 c0 18 -7 43 -16 55 -15 21 -20 22 -198 22 -164 0 -185 -2 -199 -18z"/>
<path d="M694 799 c-12 -20 11 -28 96 -31 l85 -3 5 -292 c3 -160 8 -294 12
-298 24 -24 28 21 28 301 0 356 8 334 -129 334 -54 0 -93 -4 -97 -11z"/>
<path d="M47 764 c-4 -4 -7 -137 -7 -295 0 -345 -12 -319 146 -319 78 0 104 3
114 15 17 21 4 24 -115 27 l-100 3 -5 284 c-5 269 -9 308 -33 285z"/>
<path d="M267 703 c-17 -33 -125 -311 -129 -332 -2 -8 4 -16 13 -18 12 -3 23
12 39 52 l22 55 77 0 76 0 20 -52 c12 -31 28 -54 38 -56 9 -2 17 2 17 10 0 24
-137 362 -148 366 -6 2 -17 -9 -25 -25z m54 -131 l27 -67 -55 -3 c-30 -2 -57
-1 -59 1 -3 2 8 36 23 75 15 39 30 69 33 66 3 -3 17 -36 31 -72z"/>
<path d="M617 603 c-9 -8 -9 -336 -1 -357 5 -13 21 -16 76 -16 108 0 148 29
148 109 0 27 -7 48 -25 69 -20 24 -22 31 -10 43 29 30 22 93 -14 130 -27 26
-36 29 -99 29 -38 0 -72 -3 -75 -7z m148 -44 c50 -51 10 -119 -70 -119 l-45 0
0 63 c0 35 3 67 8 71 11 12 92 0 107 -15z m24 -185 c12 -15 21 -32 21 -39 0
-7 -9 -24 -21 -39 -18 -23 -28 -26 -80 -26 l-59 0 0 65 0 65 59 0 c52 0 62 -3
80 -26z"/>
<path d="M486 532 c-3 -5 6 -75 19 -158 14 -82 25 -157 25 -166 0 -16 -11 -18
-91 -18 -81 0 -90 -2 -87 -18 2 -11 14 -18 36 -20 30 -3 32 -6 32 -41 0 -69 8
-71 252 -71 195 0 216 2 231 18 23 26 23 75 0 70 -10 -2 -19 -13 -21 -26 -3
-22 -4 -22 -194 -22 l-191 0 40 43 40 43 -28 177 c-15 97 -31 181 -34 187 -7
12 -22 13 -29 2z m14 -385 c0 -2 -9 -12 -20 -22 -19 -18 -20 -17 -20 3 0 15 6
22 20 22 11 0 20 -2 20 -3z"/>
</g>
</svg>
